<mxfile host="app.diagrams.net" agent="Mozilla/5.0 (Windows NT 10.0; Win64; x64) AppleWebKit/537.36 (KHTML, like Gecko) Chrome/120.0.0.0 Safari/537.36" version="25.0.3">
  <diagram name="Trang-1" id="Cu_Ji7fdBB1qaOkjP7Zl">
    <mxGraphModel dx="880" dy="478" grid="1" gridSize="10" guides="1" tooltips="1" connect="1" arrows="1" fold="1" page="1" pageScale="1" pageWidth="827" pageHeight="1169" math="0" shadow="0">
      <root>
        <mxCell id="0" />
        <mxCell id="1" parent="0" />
        <mxCell id="xiSwjbQs-60YWdA84orr-1" value="Bắt&amp;nbsp; đầu&amp;nbsp;" style="ellipse;whiteSpace=wrap;html=1;" vertex="1" parent="1">
          <mxGeometry x="340" y="40" width="120" height="80" as="geometry" />
        </mxCell>
        <mxCell id="xiSwjbQs-60YWdA84orr-2" value="" style="endArrow=classic;html=1;rounded=0;exitX=0.5;exitY=1;exitDx=0;exitDy=0;" edge="1" parent="1" source="xiSwjbQs-60YWdA84orr-1">
          <mxGeometry width="50" height="50" relative="1" as="geometry">
            <mxPoint x="390" y="160" as="sourcePoint" />
            <mxPoint x="400" y="150" as="targetPoint" />
          </mxGeometry>
        </mxCell>
        <mxCell id="xiSwjbQs-60YWdA84orr-3" value="Nhập N" style="shape=parallelogram;perimeter=parallelogramPerimeter;whiteSpace=wrap;html=1;fixedSize=1;" vertex="1" parent="1">
          <mxGeometry x="340" y="150" width="120" height="60" as="geometry" />
        </mxCell>
        <mxCell id="xiSwjbQs-60YWdA84orr-4" value="" style="endArrow=classic;html=1;rounded=0;exitX=0.5;exitY=1;exitDx=0;exitDy=0;" edge="1" parent="1" source="xiSwjbQs-60YWdA84orr-3">
          <mxGeometry width="50" height="50" relative="1" as="geometry">
            <mxPoint x="380" y="250" as="sourcePoint" />
            <mxPoint x="400" y="250" as="targetPoint" />
          </mxGeometry>
        </mxCell>
        <mxCell id="xiSwjbQs-60YWdA84orr-5" value="Khởi tạo vòng lặp tử i=1 đến i=" style="rounded=0;whiteSpace=wrap;html=1;" vertex="1" parent="1">
          <mxGeometry x="340" y="250" width="120" height="60" as="geometry" />
        </mxCell>
        <mxCell id="xiSwjbQs-60YWdA84orr-6" value="" style="endArrow=classic;html=1;rounded=0;exitX=0.5;exitY=1;exitDx=0;exitDy=0;" edge="1" parent="1" source="xiSwjbQs-60YWdA84orr-5">
          <mxGeometry width="50" height="50" relative="1" as="geometry">
            <mxPoint x="380" y="400" as="sourcePoint" />
            <mxPoint x="400" y="360" as="targetPoint" />
          </mxGeometry>
        </mxCell>
        <mxCell id="xiSwjbQs-60YWdA84orr-7" value="Kiểm tra n%i == 0" style="rounded=0;whiteSpace=wrap;html=1;" vertex="1" parent="1">
          <mxGeometry x="340" y="360" width="120" height="60" as="geometry" />
        </mxCell>
        <mxCell id="xiSwjbQs-60YWdA84orr-8" value="" style="endArrow=classic;html=1;rounded=0;exitX=0.5;exitY=1;exitDx=0;exitDy=0;" edge="1" parent="1" source="xiSwjbQs-60YWdA84orr-7">
          <mxGeometry width="50" height="50" relative="1" as="geometry">
            <mxPoint x="370" y="530" as="sourcePoint" />
            <mxPoint x="400" y="470" as="targetPoint" />
          </mxGeometry>
        </mxCell>
        <mxCell id="xiSwjbQs-60YWdA84orr-14" value="" style="endArrow=none;html=1;rounded=0;exitX=1;exitY=0.5;exitDx=0;exitDy=0;" edge="1" parent="1" source="xiSwjbQs-60YWdA84orr-7">
          <mxGeometry width="50" height="50" relative="1" as="geometry">
            <mxPoint x="460" y="420" as="sourcePoint" />
            <mxPoint x="540" y="390" as="targetPoint" />
          </mxGeometry>
        </mxCell>
        <mxCell id="xiSwjbQs-60YWdA84orr-15" value="" style="endArrow=classic;html=1;rounded=0;" edge="1" parent="1">
          <mxGeometry width="50" height="50" relative="1" as="geometry">
            <mxPoint x="540" y="390" as="sourcePoint" />
            <mxPoint x="540" y="470" as="targetPoint" />
          </mxGeometry>
        </mxCell>
        <mxCell id="xiSwjbQs-60YWdA84orr-16" value="Nếu đúng" style="rounded=0;whiteSpace=wrap;html=1;" vertex="1" parent="1">
          <mxGeometry x="340" y="470" width="120" height="60" as="geometry" />
        </mxCell>
        <mxCell id="xiSwjbQs-60YWdA84orr-17" value="Nếu sai" style="rounded=0;whiteSpace=wrap;html=1;" vertex="1" parent="1">
          <mxGeometry x="490" y="470" width="120" height="60" as="geometry" />
        </mxCell>
        <mxCell id="xiSwjbQs-60YWdA84orr-18" value="" style="endArrow=classic;html=1;rounded=0;exitX=0.5;exitY=1;exitDx=0;exitDy=0;" edge="1" parent="1" source="xiSwjbQs-60YWdA84orr-16">
          <mxGeometry width="50" height="50" relative="1" as="geometry">
            <mxPoint x="390" y="620" as="sourcePoint" />
            <mxPoint x="400" y="580" as="targetPoint" />
          </mxGeometry>
        </mxCell>
        <mxCell id="xiSwjbQs-60YWdA84orr-19" value="In ước của N (Tiếp tục tăng i để kiểm tra)" style="rounded=0;whiteSpace=wrap;html=1;" vertex="1" parent="1">
          <mxGeometry x="340" y="580" width="120" height="60" as="geometry" />
        </mxCell>
        <mxCell id="xiSwjbQs-60YWdA84orr-20" value="" style="endArrow=classic;html=1;rounded=0;exitX=0.5;exitY=1;exitDx=0;exitDy=0;entryX=1.008;entryY=0.388;entryDx=0;entryDy=0;entryPerimeter=0;" edge="1" parent="1" source="xiSwjbQs-60YWdA84orr-17" target="xiSwjbQs-60YWdA84orr-26">
          <mxGeometry width="50" height="50" relative="1" as="geometry">
            <mxPoint x="530" y="660" as="sourcePoint" />
            <mxPoint x="550" y="580" as="targetPoint" />
          </mxGeometry>
        </mxCell>
        <mxCell id="xiSwjbQs-60YWdA84orr-22" value="" style="endArrow=none;html=1;rounded=0;entryX=0;entryY=0.5;entryDx=0;entryDy=0;" edge="1" parent="1" target="xiSwjbQs-60YWdA84orr-19">
          <mxGeometry width="50" height="50" relative="1" as="geometry">
            <mxPoint x="270" y="610" as="sourcePoint" />
            <mxPoint x="310" y="600" as="targetPoint" />
          </mxGeometry>
        </mxCell>
        <mxCell id="xiSwjbQs-60YWdA84orr-23" value="" style="endArrow=none;html=1;rounded=0;" edge="1" parent="1">
          <mxGeometry width="50" height="50" relative="1" as="geometry">
            <mxPoint x="270" y="610" as="sourcePoint" />
            <mxPoint x="270" y="500" as="targetPoint" />
          </mxGeometry>
        </mxCell>
        <mxCell id="xiSwjbQs-60YWdA84orr-24" value="" style="endArrow=classic;html=1;rounded=0;entryX=0;entryY=0.5;entryDx=0;entryDy=0;" edge="1" parent="1" target="xiSwjbQs-60YWdA84orr-16">
          <mxGeometry width="50" height="50" relative="1" as="geometry">
            <mxPoint x="270" y="500" as="sourcePoint" />
            <mxPoint x="280" y="510" as="targetPoint" />
          </mxGeometry>
        </mxCell>
        <mxCell id="xiSwjbQs-60YWdA84orr-25" value="" style="endArrow=classic;html=1;rounded=0;exitX=0.5;exitY=1;exitDx=0;exitDy=0;" edge="1" parent="1" source="xiSwjbQs-60YWdA84orr-19">
          <mxGeometry width="50" height="50" relative="1" as="geometry">
            <mxPoint x="390" y="750" as="sourcePoint" />
            <mxPoint x="400" y="700" as="targetPoint" />
          </mxGeometry>
        </mxCell>
        <mxCell id="xiSwjbQs-60YWdA84orr-26" value="Kết thúc" style="ellipse;whiteSpace=wrap;html=1;" vertex="1" parent="1">
          <mxGeometry x="340" y="700" width="120" height="80" as="geometry" />
        </mxCell>
      </root>
    </mxGraphModel>
  </diagram>
</mxfile>
